<svg width="40" height="40" viewBox="0 0 40 40" fill="none" xmlns="http://www.w3.org/2000/svg">
<g clip-path="url(#clip0_1949_3482)">
<path d="M38.0077 1.5625L22.3999 13.1547L25.2862 6.31544L38.0077 1.5625Z" fill="#E2761B" stroke="#E2761B" stroke-width="0.3125" stroke-linecap="round" stroke-linejoin="round"/>
<path d="M1.97656 1.5625L17.4589 13.2645L14.7138 6.31544L1.97656 1.5625Z" fill="#E4761B" stroke="#E4761B" stroke-width="0.3125" stroke-linecap="round" stroke-linejoin="round"/>
<path d="M32.3922 28.4336L28.2354 34.8022L37.1295 37.2493L39.6863 28.5748L32.3922 28.4336Z" fill="#E4761B" stroke="#E4761B" stroke-width="0.3125" stroke-linecap="round" stroke-linejoin="round"/>
<path d="M0.329346 28.5748L2.87052 37.2493L11.7646 34.8022L7.60778 28.4336L0.329346 28.5748Z" fill="#E4761B" stroke="#E4761B" stroke-width="0.3125" stroke-linecap="round" stroke-linejoin="round"/>
<path d="M11.2629 17.6723L8.78442 21.4213L17.6158 21.8134L17.3021 12.3232L11.2629 17.6723Z" fill="#E4761B" stroke="#E4761B" stroke-width="0.3125" stroke-linecap="round" stroke-linejoin="round"/>
<path d="M28.7217 17.6727L22.6041 12.2139L22.4001 21.8139L31.2158 21.4217L28.7217 17.6727Z" fill="#E4761B" stroke="#E4761B" stroke-width="0.3125" stroke-linecap="round" stroke-linejoin="round"/>
<path d="M11.7646 34.8014L17.0666 32.2132L12.4862 28.6367L11.7646 34.8014Z" fill="#E4761B" stroke="#E4761B" stroke-width="0.3125" stroke-linecap="round" stroke-linejoin="round"/>
<path d="M22.9177 32.2132L28.2354 34.8014L27.4981 28.6367L22.9177 32.2132Z" fill="#E4761B" stroke="#E4761B" stroke-width="0.3125" stroke-linecap="round" stroke-linejoin="round"/>
<path d="M28.2351 34.8011L22.9175 32.2129L23.341 35.6796L23.294 37.1384L28.2351 34.8011Z" fill="#D7C1B3" stroke="#D7C1B3" stroke-width="0.3125" stroke-linecap="round" stroke-linejoin="round"/>
<path d="M11.7646 34.8011L16.7058 37.1384L16.6745 35.6796L17.0666 32.2129L11.7646 34.8011Z" fill="#D7C1B3" stroke="#D7C1B3" stroke-width="0.3125" stroke-linecap="round" stroke-linejoin="round"/>
<path d="M16.7844 26.3466L12.3608 25.0446L15.4824 23.6172L16.7844 26.3466Z" fill="#233447" stroke="#233447" stroke-width="0.3125" stroke-linecap="round" stroke-linejoin="round"/>
<path d="M23.2 26.3466L24.5019 23.6172L27.6392 25.0446L23.2 26.3466Z" fill="#233447" stroke="#233447" stroke-width="0.3125" stroke-linecap="round" stroke-linejoin="round"/>
<path d="M11.7648 34.8022L12.5177 28.4336L7.60791 28.5748L11.7648 34.8022Z" fill="#CD6116" stroke="#CD6116" stroke-width="0.3125" stroke-linecap="round" stroke-linejoin="round"/>
<path d="M27.4824 28.4336L28.2354 34.8022L32.3922 28.5748L27.4824 28.4336Z" fill="#CD6116" stroke="#CD6116" stroke-width="0.3125" stroke-linecap="round" stroke-linejoin="round"/>
<path d="M31.2158 21.4219L22.4001 21.814L23.2158 26.3474L24.5178 23.618L27.655 25.0454L31.2158 21.4219Z" fill="#CD6116" stroke="#CD6116" stroke-width="0.3125" stroke-linecap="round" stroke-linejoin="round"/>
<path d="M12.3609 25.0454L15.4982 23.618L16.7844 26.3474L17.6158 21.814L8.78442 21.4219L12.3609 25.0454Z" fill="#CD6116" stroke="#CD6116" stroke-width="0.3125" stroke-linecap="round" stroke-linejoin="round"/>
<path d="M8.78418 21.4219L12.4861 28.6376L12.3606 25.0454L8.78418 21.4219Z" fill="#E4751F" stroke="#E4751F" stroke-width="0.3125" stroke-linecap="round" stroke-linejoin="round"/>
<path d="M27.6549 25.0454L27.498 28.6376L31.2157 21.4219L27.6549 25.0454Z" fill="#E4751F" stroke="#E4751F" stroke-width="0.3125" stroke-linecap="round" stroke-linejoin="round"/>
<path d="M17.6156 21.8145L16.7842 26.3478L17.8195 31.6968L18.0548 24.6537L17.6156 21.8145Z" fill="#E4751F" stroke="#E4751F" stroke-width="0.3125" stroke-linecap="round" stroke-linejoin="round"/>
<path d="M22.3998 21.8145L21.9763 24.638L22.1646 31.6968L23.2155 26.3478L22.3998 21.8145Z" fill="#E4751F" stroke="#E4751F" stroke-width="0.3125" stroke-linecap="round" stroke-linejoin="round"/>
<path d="M23.2158 26.3469L22.1648 31.6959L22.9177 32.2135L27.4981 28.6371L27.655 25.0449L23.2158 26.3469Z" fill="#F6851B" stroke="#F6851B" stroke-width="0.3125" stroke-linecap="round" stroke-linejoin="round"/>
<path d="M12.3608 25.0449L12.4863 28.6371L17.0667 32.2135L17.8197 31.6959L16.7844 26.3469L12.3608 25.0449Z" fill="#F6851B" stroke="#F6851B" stroke-width="0.3125" stroke-linecap="round" stroke-linejoin="round"/>
<path d="M23.2941 37.139L23.3411 35.6802L22.949 35.3351H17.0352L16.6745 35.6802L16.7058 37.139L11.7646 34.8018L13.4901 36.2135L16.9882 38.6449H22.996L26.5097 36.2135L28.2352 34.8018L23.2941 37.139Z" fill="#C0AD9E" stroke="#C0AD9E" stroke-width="0.3125" stroke-linecap="round" stroke-linejoin="round"/>
<path d="M22.9177 32.2139L22.1648 31.6963H17.8197L17.0667 32.2139L16.6746 35.6806L17.0353 35.3355H22.9491L23.3412 35.6806L22.9177 32.2139Z" fill="#161616" stroke="#161616" stroke-width="0.3125" stroke-linecap="round" stroke-linejoin="round"/>
<path d="M38.6667 13.9076L40.0001 7.5076L38.0079 1.5625L22.9177 12.7625L28.7216 17.6723L36.9256 20.0723L38.7452 17.9547L37.9609 17.39L39.2158 16.2449L38.2432 15.4919L39.4981 14.5351L38.6667 13.9076Z" fill="#763D16" stroke="#763D16" stroke-width="0.3125" stroke-linecap="round" stroke-linejoin="round"/>
<path d="M0 7.5076L1.33333 13.9076L0.486275 14.5351L1.74118 15.4919L0.784314 16.2449L2.03922 17.39L1.2549 17.9547L3.05882 20.0723L11.2627 17.6723L17.0667 12.7625L1.97647 1.5625L0 7.5076Z" fill="#763D16" stroke="#763D16" stroke-width="0.3125" stroke-linecap="round" stroke-linejoin="round"/>
<path d="M36.9255 20.0729L28.7216 17.6729L31.2157 21.4219L27.498 28.6376L32.3922 28.5748H39.6863L36.9255 20.0729Z" fill="#F6851B" stroke="#F6851B" stroke-width="0.3125" stroke-linecap="round" stroke-linejoin="round"/>
<path d="M11.2627 17.6729L3.05876 20.0729L0.329346 28.5748H7.60778L12.4862 28.6376L8.78425 21.4219L11.2627 17.6729Z" fill="#F6851B" stroke="#F6851B" stroke-width="0.3125" stroke-linecap="round" stroke-linejoin="round"/>
<path d="M22.4001 21.8135L22.9178 12.7625L25.3021 6.31543H14.7139L17.0668 12.7625L17.6158 21.8135L17.8041 24.6684L17.8197 31.6958H22.1648L22.1962 24.6684L22.4001 21.8135Z" fill="#F6851B" stroke="#F6851B" stroke-width="0.3125" stroke-linecap="round" stroke-linejoin="round"/>
</g>
<defs>
<clipPath id="clip0_1949_3482">
<rect width="40" height="40" fill="white"/>
</clipPath>
</defs>
</svg>
