<svg width="276" height="276" viewBox="0 0 276 276" fill="none" xmlns="http://www.w3.org/2000/svg">
<g clip-path="url(#clip0_1617_11657)">
<path d="M138 253C201.513 253 253 201.513 253 138C253 74.4873 201.513 23 138 23C74.4872 23 23 74.4873 23 138C23 201.513 74.4872 253 138 253Z" fill="url(#paint0_linear_1617_11657)"/>
<g filter="url(#filter0_f_1617_11657)">
<path d="M138 222C184.392 222 222 184.392 222 138C222 91.6081 184.392 54 138 54C91.6081 54 54 91.6081 54 138C54 184.392 91.6081 222 138 222Z" fill="url(#paint1_linear_1617_11657)"/>
</g>
<path fill-rule="evenodd" clip-rule="evenodd" d="M130.096 44.5801C132.02 44.5801 133.58 43.0204 133.58 41.0964C133.58 39.1725 132.02 37.6128 130.096 37.6128C128.172 37.6128 126.613 39.1725 126.613 41.0964C126.613 43.0204 128.172 44.5801 130.096 44.5801ZM130.096 47.1929C133.463 47.1929 136.193 44.4634 136.193 41.0964C136.193 37.7295 133.463 35 130.096 35C126.729 35 124 37.7295 124 41.0964C124 44.4634 126.729 47.1929 130.096 47.1929Z" fill="white"/>
<path fill-rule="evenodd" clip-rule="evenodd" d="M47.0964 204.58C49.0204 204.58 50.5801 203.02 50.5801 201.096C50.5801 199.172 49.0204 197.613 47.0964 197.613C45.1725 197.613 43.6128 199.172 43.6128 201.096C43.6128 203.02 45.1725 204.58 47.0964 204.58ZM47.0964 207.193C50.4634 207.193 53.1929 204.463 53.1929 201.096C53.1929 197.729 50.4634 195 47.0964 195C43.7295 195 41 197.729 41 201.096C41 204.463 43.7295 207.193 47.0964 207.193Z" fill="white"/>
<path fill-rule="evenodd" clip-rule="evenodd" d="M238.098 196.58C240.022 196.58 241.582 195.02 241.582 193.096C241.582 191.172 240.022 189.613 238.098 189.613C236.174 189.613 234.615 191.172 234.615 193.096C234.615 195.02 236.174 196.58 238.098 196.58ZM238.098 199.193C241.465 199.193 244.195 196.463 244.195 193.096C244.195 189.729 241.465 187 238.098 187C234.731 187 232.002 189.729 232.002 193.096C232.002 196.463 234.731 199.193 238.098 199.193Z" fill="white"/>
<path d="M73.391 60.1887C73.6472 59.1272 75.1571 59.1272 75.4133 60.1887L76.2757 63.7613C76.3673 64.1406 76.6635 64.4368 77.0428 64.5284L80.6154 65.3908C81.6769 65.647 81.6769 67.1569 80.6154 67.4131L77.0428 68.2755C76.6635 68.3671 76.3673 68.6632 76.2757 69.0426L75.4133 72.6152C75.1571 73.6767 73.6472 73.6767 73.391 72.6152L72.5286 69.0426C72.437 68.6632 72.1409 68.3671 71.7615 68.2755L68.1889 67.4131C67.1274 67.1569 67.1274 65.647 68.1889 65.3908L71.7615 64.5284C72.1409 64.4368 72.437 64.1406 72.5286 63.7613L73.391 60.1887Z" fill="white"/>
<path d="M221.296 216.591C221.577 215.428 223.232 215.428 223.513 216.591L224.458 220.507C224.558 220.923 224.883 221.248 225.299 221.348L229.215 222.294C230.378 222.574 230.378 224.229 229.215 224.51L225.299 225.456C224.883 225.556 224.558 225.881 224.458 226.296L223.513 230.212C223.232 231.376 221.577 231.376 221.296 230.212L220.35 226.296C220.25 225.881 219.925 225.556 219.51 225.456L215.594 224.51C214.43 224.229 214.43 222.574 215.594 222.294L219.51 221.348C219.925 221.248 220.25 220.923 220.35 220.507L221.296 216.591Z" fill="url(#paint2_linear_1617_11657)"/>
<path d="M57.0309 231.238C58.3549 231.026 59.4119 232.326 58.9335 233.579L55.7045 242.034C55.2261 243.287 53.5711 243.552 52.7255 242.511L47.0176 235.487C46.1719 234.447 46.7699 232.881 48.0939 232.669L57.0309 231.238Z" fill="url(#paint3_linear_1617_11657)"/>
<path d="M226.98 69.0061C226.649 67.7068 227.848 66.5361 229.139 66.8989L237.853 69.3475C239.143 69.7102 239.558 71.3343 238.598 72.2709L232.121 78.5926C231.161 79.5291 229.548 79.0757 229.216 77.7764L226.98 69.0061Z" fill="url(#paint4_linear_1617_11657)"/>
<path d="M197.967 129.711L179.074 133.384C173.698 134.428 170.188 139.633 171.233 145.008C172.278 150.383 177.482 153.893 182.857 152.849L201.751 149.176C207.126 148.131 210.636 142.927 209.591 137.552C208.547 132.177 203.342 128.666 197.967 129.711Z" fill="url(#paint5_linear_1617_11657)"/>
<path d="M205.392 139.403C205.487 136.956 203.581 134.895 201.133 134.8C198.686 134.704 196.625 136.611 196.53 139.058C196.434 141.505 198.341 143.566 200.788 143.662C203.236 143.757 205.297 141.85 205.392 139.403Z" fill="#EBEBEB"/>
<path d="M201.421 141.615C202.737 141.359 203.596 140.085 203.341 138.77C203.085 137.454 201.811 136.595 200.495 136.85C199.18 137.106 198.32 138.38 198.576 139.696C198.832 141.011 200.106 141.871 201.421 141.615Z" fill="#DBDBDB"/>
<path d="M168.011 99.8496L71.5416 118.602C66.1202 119.655 62.5795 124.905 63.6333 130.326L76.6675 197.38C77.7213 202.802 82.9704 206.342 88.3918 205.288L184.861 186.537C190.283 185.483 193.823 180.234 192.77 174.812L179.735 107.758C178.682 102.337 173.433 98.7958 168.011 99.8496Z" fill="url(#paint6_linear_1617_11657)"/>
<path d="M166.248 69.3588L185.954 120.295C187.057 123.142 185.639 126.344 182.797 127.445L102.014 158.698C99.1717 159.8 95.9697 158.382 94.8663 155.535L75.1608 104.599C74.1379 101.949 75.452 98.9709 78.1027 97.9481L159.595 66.4232C162.246 65.4004 165.223 66.7144 166.246 69.3652L166.248 69.3588Z" fill="url(#paint7_linear_1617_11657)"/>
<path d="M170.043 118.196C171.053 120.815 169.754 123.76 167.135 124.77C164.517 125.781 161.571 124.481 160.561 121.862C159.55 119.244 160.85 116.299 163.469 115.288C166.087 114.278 169.033 115.578 170.043 118.196Z" fill="url(#paint8_linear_1617_11657)"/>
<path d="M175.879 115.934C176.89 118.553 175.59 121.498 172.972 122.509C170.353 123.519 167.408 122.219 166.397 119.601C165.387 116.982 166.687 114.037 169.305 113.027C171.924 112.016 174.869 113.316 175.879 115.934Z" fill="url(#paint9_linear_1617_11657)"/>
<path d="M99.5083 99.7202L86.273 104.84C85.2059 105.253 84.6755 106.453 85.0883 107.52L88.1655 115.474C88.5783 116.541 89.7781 117.072 90.8452 116.659L104.08 111.538C105.148 111.126 105.678 109.926 105.265 108.859L102.188 100.905C101.775 99.8378 100.575 99.3074 99.5083 99.7202Z" fill="url(#paint10_linear_1617_11657)"/>
<path d="M159.749 83.8623L152.01 86.854C150.219 87.5417 148.209 86.6543 147.516 84.8647C146.829 83.0733 147.716 81.0631 149.506 80.3708L157.244 77.3791C159.034 76.6869 161.046 77.5789 161.738 79.3685C162.426 81.1598 161.538 83.1701 159.749 83.8623Z" fill="white"/>
<path d="M92.4507 128.416L91.9099 129.099C91.9099 129.099 91.8652 129.148 91.833 129.16C91.7685 129.185 91.6991 129.169 91.6538 129.134C91.5678 129.061 91.5565 128.949 91.6281 128.874L92.3615 127.922C92.4238 127.85 92.5496 127.834 92.6211 127.896C92.66 127.929 92.6805 127.968 92.6936 128.016L94.4574 132.57C94.4928 132.662 94.4538 132.767 94.3525 132.806C94.2603 132.841 94.152 132.793 94.1167 132.701L92.4599 128.412L92.4507 128.416Z" fill="#F8F8F8"/>
<path d="M95.6156 131.966L97.1212 128.978C97.2986 128.614 97.3151 128.217 97.179 127.862C97.0623 127.558 96.8305 127.299 96.5158 127.139C96.1611 126.959 95.7563 126.95 95.4127 127.087C95.0995 127.208 94.8363 127.43 94.6724 127.747L94.5178 128.06C94.4753 128.155 94.3584 128.195 94.2766 128.147C94.181 128.104 94.1414 127.988 94.1893 127.906L94.3421 127.588C94.5492 127.192 94.8904 126.897 95.2819 126.747C95.7147 126.58 96.2159 126.578 96.6779 126.818C97.0882 127.02 97.3748 127.354 97.5215 127.736C97.6895 128.174 97.6842 128.683 97.4551 129.146L96.1661 131.707L98.5147 130.805C98.605 130.765 98.7116 130.809 98.7505 130.91C98.7858 131.002 98.7376 131.111 98.6455 131.146L95.8814 132.217L95.8538 132.228C95.8031 132.248 95.7471 132.253 95.7054 132.227C95.6109 132.173 95.5702 132.067 95.6128 131.972L95.6156 131.966Z" fill="#F8F8F8"/>
<path d="M101.119 124.845L100.347 126.658C100.684 126.603 101.04 126.635 101.372 126.783C101.824 126.984 102.156 127.353 102.322 127.786C102.488 128.219 102.493 128.714 102.287 129.168C102.086 129.621 101.718 129.957 101.287 130.128C100.864 130.29 100.369 130.295 99.9146 130.089C99.8208 130.051 99.7738 129.943 99.8192 129.841C99.8554 129.742 99.9659 129.7 100.068 129.745C100.428 129.898 100.813 129.898 101.154 129.767C101.495 129.636 101.786 129.376 101.95 129.018C102.111 128.654 102.105 128.266 101.974 127.925C101.843 127.584 101.584 127.293 101.224 127.141C100.865 126.977 100.477 126.984 100.136 127.114C100.081 127.136 100.019 127.127 99.9665 127.1L99.9573 127.104C99.8571 127.063 99.8129 126.948 99.8601 126.85L100.602 125.107L98.6999 125.837C98.6003 125.881 98.492 125.833 98.4549 125.736C98.416 125.635 98.4642 125.526 98.5609 125.489L100.882 124.598C100.981 124.555 101.09 124.603 101.127 124.7C101.138 124.727 101.139 124.759 101.134 124.787C101.134 124.813 101.127 124.837 101.118 124.856L101.119 124.845Z" fill="#F8F8F8"/>
<path d="M106.685 126.861L104 127.902L103.977 127.911C103.94 127.925 103.895 127.932 103.857 127.915C103.757 127.89 103.704 127.778 103.742 127.684L105.231 123.002L105.236 122.989C105.271 122.886 105.364 122.84 105.467 122.874C105.503 122.887 105.53 122.914 105.554 122.936C105.559 122.95 105.572 122.955 105.574 122.96L105.583 122.983L106.898 126.383L107.23 126.255C107.331 126.217 107.44 126.265 107.475 126.357C107.51 126.449 107.462 126.557 107.365 126.594L107.034 126.722L107.361 127.574C107.396 127.666 107.348 127.774 107.251 127.811C107.159 127.847 107.051 127.798 107.015 127.706L106.688 126.854L106.685 126.861ZM106.555 126.52L105.43 123.618L104.21 127.431L106.558 126.529L106.555 126.52Z" fill="#F8F8F8"/>
<path d="M113.104 124.987C113.004 124.946 112.96 124.831 113.009 124.738C113.052 124.643 113.165 124.594 113.262 124.641C113.622 124.794 114.008 124.794 114.348 124.663C114.689 124.532 114.971 124.276 115.133 123.913C115.295 123.549 115.29 123.165 115.159 122.825C115.027 122.479 114.767 122.188 114.41 122.029C114.055 121.875 113.665 121.877 113.324 122.007C112.978 122.14 112.692 122.398 112.53 122.761C112.487 122.857 112.372 122.901 112.281 122.857C112.253 122.852 112.23 122.834 112.219 122.817L112.215 122.808C112.215 122.808 112.201 122.798 112.197 122.789C112.183 122.778 112.174 122.755 112.167 122.737C112.163 122.728 112.162 122.712 112.157 122.698L111.623 120.605C111.602 120.55 111.612 120.493 111.643 120.45C111.66 120.411 111.696 120.382 111.742 120.364L114.054 119.477C114.153 119.433 114.261 119.481 114.299 119.578C114.339 119.684 114.289 119.788 114.193 119.825L112.028 120.656L112.422 122.206C112.617 121.956 112.877 121.767 113.177 121.652C113.61 121.486 114.092 121.475 114.552 121.684C115.014 121.882 115.333 122.245 115.503 122.687C115.665 123.111 115.683 123.612 115.472 124.068C115.269 124.515 114.897 124.854 114.469 125.018C114.036 125.184 113.541 125.189 113.089 124.988L113.104 124.987Z" fill="#F8F8F8"/>
<path d="M116.518 119.773C116.628 119.039 117.027 118.373 117.839 118.024C117.928 117.98 118.036 118.028 118.081 118.117C118.119 118.218 118.071 118.326 117.981 118.366C117.296 118.661 116.997 119.188 116.881 119.824C116.822 120.179 116.846 120.572 116.913 120.953C117.082 120.497 117.434 120.108 117.923 119.921C118.839 119.569 119.852 120.02 120.199 120.923C120.547 121.83 120.1 122.841 119.19 123.196C118.302 123.537 117.31 123.115 116.94 122.248C116.886 122.147 116.845 122.041 116.801 121.926C116.553 121.266 116.409 120.491 116.523 119.771L116.518 119.773ZM117.275 122.087C117.289 122.124 117.309 122.148 117.324 122.174C117.333 122.197 117.338 122.211 117.334 122.228C117.664 122.826 118.399 123.103 119.049 122.854C119.772 122.577 120.127 121.769 119.855 121.06C119.583 120.351 118.775 119.995 118.052 120.273C117.343 120.545 116.987 121.352 117.26 122.062L117.27 122.089L117.275 122.087Z" fill="#F8F8F8"/>
<path d="M122.544 121.625L122.694 116.564L120.294 117.485C120.204 117.524 120.097 117.481 120.062 117.389C120.027 117.297 120.075 117.188 120.167 117.153L122.792 116.145C122.823 116.117 122.856 116.105 122.898 116.105C122.948 116.112 123.001 116.139 123.031 116.175C123.049 116.195 123.059 116.207 123.066 116.225C123.08 116.262 123.081 116.293 123.073 116.328L122.918 121.634C122.915 121.709 122.866 121.776 122.802 121.8C122.774 121.811 122.76 121.816 122.727 121.813C122.626 121.81 122.544 121.72 122.539 121.626L122.544 121.625Z" fill="#F8F8F8"/>
<path d="M125.615 115.009C126.182 114.792 126.828 115.072 127.046 115.638C127.178 115.984 127.123 116.348 126.944 116.639C127.625 116.652 128.262 117.073 128.519 117.741C128.862 118.634 128.424 119.627 127.532 119.974C126.643 120.316 125.646 119.879 125.299 118.988C125.042 118.32 125.23 117.582 125.716 117.116C125.395 117.022 125.114 116.787 124.982 116.441C124.764 115.875 125.037 115.236 125.613 115.015L125.615 115.009ZM127.404 119.627C128.113 119.355 128.451 118.57 128.183 117.87C127.916 117.175 127.135 116.819 126.425 117.092C125.725 117.36 125.38 118.153 125.647 118.849C125.917 119.553 126.704 119.896 127.404 119.627ZM126.285 116.739C126.663 116.583 126.856 116.15 126.71 115.767C126.563 115.385 126.133 115.201 125.751 115.348C125.369 115.495 125.183 115.92 125.33 116.302C125.477 116.684 125.905 116.879 126.289 116.737L126.285 116.739Z" fill="#F8F8F8"/>
<path d="M134.43 111.599C135.282 111.272 136.213 111.634 136.618 112.413C136.632 112.424 136.636 112.433 136.646 112.445C136.706 112.575 136.766 112.716 136.822 112.863C137.075 113.522 137.218 114.307 137.113 115.024C136.998 115.744 136.595 116.427 135.792 116.772L135.783 116.776C135.682 116.815 135.577 116.776 135.541 116.684C135.503 116.582 135.543 116.482 135.641 116.434C136.315 116.138 136.635 115.609 136.741 114.976C136.796 114.612 136.785 114.225 136.709 113.847C136.54 114.303 136.182 114.678 135.685 114.869C134.782 115.215 133.77 114.78 133.413 113.865C133.067 112.963 133.518 111.949 134.421 111.603L134.43 111.599ZM136.357 112.725C136.085 112.016 135.285 111.667 134.562 111.945C133.853 112.217 133.496 113.02 133.766 113.725C134.044 114.448 134.846 114.789 135.555 114.517C136.278 114.24 136.635 113.448 136.352 112.726L136.357 112.725Z" fill="#F8F8F8"/>
<path d="M138.296 112.958C138.04 112.291 137.972 111.619 138.098 111.037C138.232 110.479 138.548 110.009 139.05 109.816C139.552 109.623 140.106 109.759 140.578 110.08C141.054 110.426 141.472 110.963 141.733 111.629C141.989 112.296 142.043 112.973 141.918 113.544C141.786 114.107 141.471 114.582 140.969 114.775C140.467 114.967 139.913 114.831 139.438 114.501C138.961 114.167 138.551 113.622 138.294 112.954L138.296 112.958ZM138.641 112.826C138.875 113.434 139.251 113.918 139.656 114.201C140.058 114.48 140.482 114.566 140.837 114.429C141.191 114.293 141.438 113.945 141.556 113.467C141.662 112.987 141.622 112.374 141.389 111.766C141.156 111.158 140.77 110.677 140.37 110.392C139.958 110.102 139.544 110.028 139.189 110.164C138.834 110.3 138.573 110.638 138.47 111.127C138.364 111.606 138.413 112.216 138.648 112.829L138.641 112.826Z" fill="#F8F8F8"/>
<path d="M143.259 108.763L142.719 109.447C142.719 109.447 142.674 109.495 142.642 109.508C142.577 109.533 142.508 109.517 142.462 109.482C142.376 109.409 142.365 109.297 142.437 109.222L143.17 108.269C143.233 108.198 143.358 108.181 143.43 108.244C143.469 108.276 143.489 108.316 143.502 108.364L145.266 112.917C145.301 113.01 145.262 113.114 145.161 113.153C145.069 113.189 144.961 113.14 144.925 113.048L143.269 108.76L143.259 108.763Z" fill="#F8F8F8"/>
<path d="M146.423 112.31L147.928 109.323C148.106 108.959 148.122 108.561 147.986 108.207C147.869 107.903 147.638 107.643 147.323 107.484C146.968 107.303 146.563 107.295 146.22 107.432C145.907 107.552 145.645 107.779 145.479 108.091L145.325 108.404C145.282 108.5 145.165 108.539 145.084 108.491C144.988 108.449 144.948 108.332 144.996 108.25L145.149 107.933C145.356 107.536 145.697 107.241 146.087 107.086C146.52 106.92 147.021 106.918 147.483 107.158C147.893 107.36 148.18 107.694 148.327 108.076C148.495 108.513 148.489 109.023 148.26 109.486L146.971 112.047L149.32 111.145C149.41 111.105 149.519 111.153 149.556 111.25C149.591 111.342 149.543 111.45 149.451 111.486L146.687 112.557L146.659 112.568C146.608 112.587 146.552 112.593 146.511 112.567C146.416 112.513 146.375 112.407 146.418 112.312L146.423 112.31Z" fill="#F8F8F8"/>
<path d="M156.173 103.546L155.4 105.36C155.738 105.304 156.094 105.336 156.425 105.484C156.878 105.685 157.21 106.054 157.376 106.487C157.542 106.92 157.547 107.415 157.341 107.869C157.139 108.322 156.772 108.658 156.345 108.827C155.922 108.99 155.422 108.997 154.968 108.791C154.874 108.753 154.827 108.644 154.873 108.542C154.911 108.448 155.019 108.401 155.121 108.446C155.481 108.599 155.867 108.599 156.208 108.468C156.548 108.337 156.84 108.077 157.003 107.719C157.165 107.356 157.158 106.967 157.028 106.626C156.897 106.286 156.637 105.994 156.277 105.842C155.919 105.678 155.53 105.685 155.189 105.816C155.134 105.837 155.073 105.829 155.02 105.801L155.011 105.805C154.911 105.764 154.866 105.649 154.914 105.551L155.655 103.809L153.753 104.539C153.654 104.582 153.546 104.534 153.508 104.437C153.47 104.336 153.518 104.227 153.614 104.19L155.935 103.299C156.035 103.256 156.143 103.304 156.18 103.401C156.191 103.429 156.192 103.46 156.187 103.488C156.187 103.515 156.18 103.538 156.172 103.557L156.173 103.546Z" fill="#F8F8F8"/>
<path d="M161.739 105.564L159.05 106.597L159.042 106.605L159.029 106.61C158.992 106.624 158.949 106.636 158.909 106.614C158.809 106.589 158.756 106.477 158.794 106.383L160.283 101.701L160.288 101.688C160.323 101.585 160.416 101.539 160.519 101.574C160.555 101.586 160.582 101.613 160.606 101.635C160.611 101.649 160.62 101.656 160.626 101.659L160.635 101.682L161.95 105.082L162.282 104.955C162.383 104.916 162.492 104.964 162.527 105.056C162.562 105.148 162.514 105.257 162.417 105.294L162.086 105.421L162.413 106.273C162.448 106.365 162.4 106.473 162.303 106.51C162.211 106.546 162.103 106.498 162.067 106.405L161.74 105.553L161.739 105.564ZM161.608 105.224L160.484 102.321L159.263 106.134L161.612 105.233L161.608 105.224Z" fill="#F8F8F8"/>
<path d="M163.911 105.331C163.811 105.29 163.767 105.175 163.816 105.082C163.858 104.987 163.974 104.942 164.069 104.985C164.429 105.137 164.814 105.138 165.155 105.008C165.496 104.877 165.778 104.621 165.94 104.257C166.102 103.894 166.097 103.509 165.966 103.168C165.833 102.823 165.574 102.532 165.217 102.373C164.86 102.214 164.471 102.22 164.131 102.351C163.785 102.484 163.499 102.743 163.337 103.106C163.294 103.202 163.181 103.249 163.088 103.2C163.06 103.195 163.037 103.179 163.026 103.162L163.022 103.152C163.022 103.152 163.008 103.143 163.004 103.133C162.989 103.123 162.981 103.099 162.974 103.081C162.97 103.071 162.969 103.056 162.964 103.042L162.43 100.949C162.409 100.893 162.419 100.837 162.45 100.793C162.467 100.755 162.503 100.725 162.549 100.708L164.86 99.8208C164.96 99.7773 165.068 99.8255 165.105 99.9222C165.146 100.028 165.096 100.131 164.999 100.168L162.835 100.999L163.229 102.55C163.426 102.306 163.684 102.11 163.984 101.996C164.416 101.829 164.898 101.819 165.359 102.028C165.821 102.226 166.14 102.589 166.31 103.031C166.472 103.455 166.49 103.956 166.279 104.412C166.076 104.86 165.704 105.197 165.276 105.362C164.843 105.528 164.348 105.533 163.896 105.332L163.911 105.331Z" fill="#F8F8F8"/>
<path d="M167.325 100.117C167.435 99.383 167.832 98.7125 168.646 98.3684C168.735 98.3239 168.843 98.3721 168.887 98.4607C168.926 98.562 168.878 98.6703 168.788 98.7103C168.105 99.0094 167.803 99.532 167.688 100.168C167.629 100.523 167.653 100.915 167.72 101.297C167.889 100.841 168.241 100.452 168.729 100.265C169.646 99.9132 170.659 100.364 171.006 101.266C171.354 102.174 170.907 103.185 169.997 103.54C169.108 103.881 168.117 103.459 167.747 102.591C167.692 102.491 167.652 102.385 167.608 102.27C167.359 101.609 167.215 100.835 167.33 100.115L167.325 100.117ZM168.082 102.431C168.096 102.468 168.116 102.492 168.131 102.518C168.14 102.541 168.145 102.555 168.141 102.572C168.471 103.169 169.206 103.447 169.855 103.198C170.578 102.92 170.934 102.113 170.662 101.404C170.39 100.694 169.582 100.339 168.859 100.616C168.15 100.889 167.794 101.696 168.066 102.405L168.077 102.433L168.082 102.431Z" fill="#F8F8F8"/>
<path d="M141.352 124.404L98.0947 141.139L98.917 143.264L142.174 126.529L141.352 124.404Z" fill="url(#paint11_linear_1617_11657)"/>
<path d="M130.547 134.016L99.9221 145.864L100.744 147.99L131.369 136.142L130.547 134.016Z" fill="url(#paint12_linear_1617_11657)"/>
<path d="M142.226 83.1884L122.78 90.7114C122.193 90.9385 121.901 91.5983 122.128 92.1852C122.355 92.7721 123.015 93.0639 123.602 92.8368L143.048 85.3138C143.635 85.0867 143.926 84.4269 143.699 83.84C143.472 83.2531 142.812 82.9613 142.226 83.1884Z" fill="#3B3B3B"/>
<path d="M177.861 137.486L76.5081 157.188L84.3953 197.764L185.749 178.063L177.861 137.486Z" fill="url(#paint13_linear_1617_11657)"/>
<path opacity="0.2" d="M177.861 137.486L76.5081 157.188L84.3953 197.764L185.749 178.063L177.861 137.486Z" fill="black"/>
<path d="M187.223 202.348L87.3665 207.401C82.3945 207.653 77.9947 204.209 77.0448 199.322L62.6704 125.372C62.3312 123.627 64.1243 122.24 65.7281 123.007C67.5894 123.896 69.6576 124.273 71.719 124.099L161.423 116.426C166.516 115.99 171.117 119.464 172.092 124.481L187.227 202.342C187.227 202.344 187.225 202.347 187.223 202.348Z" fill="url(#paint14_linear_1617_11657)"/>
<path d="M166.013 165.928C168.337 165.477 169.804 162.964 169.289 160.317C168.775 157.67 166.474 155.89 164.15 156.341C161.826 156.793 160.359 159.305 160.874 161.953C161.389 164.6 163.69 166.38 166.013 165.928Z" fill="#EBEBEB"/>
<path d="M167.038 160.757C167.277 161.987 166.595 163.155 165.515 163.364C164.435 163.574 163.365 162.747 163.126 161.517C162.887 160.288 163.569 159.12 164.649 158.91C165.729 158.7 166.799 159.527 167.038 160.757Z" fill="#DBDBDB"/>
</g>
<defs>
<filter id="filter0_f_1617_11657" x="0" y="0" width="276" height="276" filterUnits="userSpaceOnUse" color-interpolation-filters="sRGB">
<feFlood flood-opacity="0" result="BackgroundImageFix"/>
<feBlend mode="normal" in="SourceGraphic" in2="BackgroundImageFix" result="shape"/>
<feGaussianBlur stdDeviation="27" result="effect1_foregroundBlur_1617_11657"/>
</filter>
<linearGradient id="paint0_linear_1617_11657" x1="55.0834" y1="23" x2="230.623" y2="59.541" gradientUnits="userSpaceOnUse">
<stop stop-color="#A259FF"/>
<stop offset="1" stop-color="#3B3B3B"/>
</linearGradient>
<linearGradient id="paint1_linear_1617_11657" x1="81.2" y1="54" x2="243.658" y2="85.3311" gradientUnits="userSpaceOnUse">
<stop stop-color="#A259FF" stop-opacity="0"/>
<stop offset="1" stop-color="#FF6250"/>
</linearGradient>
<linearGradient id="paint2_linear_1617_11657" x1="225.689" y1="219.134" x2="240.419" y2="230.703" gradientUnits="userSpaceOnUse">
<stop stop-color="#A259FF"/>
<stop offset="1" stop-color="#377DF7"/>
</linearGradient>
<linearGradient id="paint3_linear_1617_11657" x1="58.3963" y1="235.526" x2="57.9042" y2="250.182" gradientUnits="userSpaceOnUse">
<stop stop-color="#A259FF"/>
<stop offset="1" stop-color="#377DF7"/>
</linearGradient>
<linearGradient id="paint4_linear_1617_11657" x1="231.127" y1="67.2572" x2="245.767" y2="66.4176" gradientUnits="userSpaceOnUse">
<stop stop-color="#A259FF"/>
<stop offset="1" stop-color="#377DF7"/>
</linearGradient>
<linearGradient id="paint5_linear_1617_11657" x1="175.551" y1="134.068" x2="211.652" y2="140.31" gradientUnits="userSpaceOnUse">
<stop stop-color="#A259FF"/>
<stop offset="1" stop-color="#3B3B3B"/>
</linearGradient>
<linearGradient id="paint6_linear_1617_11657" x1="151.798" y1="224.896" x2="112.799" y2="148.311" gradientUnits="userSpaceOnUse">
<stop stop-color="#A259FF"/>
<stop offset="1" stop-color="#3B3B3B"/>
</linearGradient>
<linearGradient id="paint7_linear_1617_11657" x1="88.0162" y1="93.8996" x2="181.937" y2="85.7873" gradientUnits="userSpaceOnUse">
<stop stop-color="#A259FF"/>
<stop offset="1" stop-color="#FF6250"/>
</linearGradient>
<linearGradient id="paint8_linear_1617_11657" x1="160.271" y1="116.516" x2="170.129" y2="114.763" gradientUnits="userSpaceOnUse">
<stop stop-color="#A259FF"/>
<stop offset="1" stop-color="#FF6250"/>
</linearGradient>
<linearGradient id="paint9_linear_1617_11657" x1="166.108" y1="114.254" x2="175.965" y2="112.501" gradientUnits="userSpaceOnUse">
<stop stop-color="#A259FF"/>
<stop offset="1" stop-color="#3B3B3B"/>
</linearGradient>
<linearGradient id="paint10_linear_1617_11657" x1="87.1093" y1="104.517" x2="104.739" y2="102.801" gradientUnits="userSpaceOnUse">
<stop stop-color="#A259FF"/>
<stop offset="1" stop-color="#3B3B3B"/>
</linearGradient>
<linearGradient id="paint11_linear_1617_11657" x1="105.098" y1="138.429" x2="111.758" y2="147.786" gradientUnits="userSpaceOnUse">
<stop stop-color="#A259FF"/>
<stop offset="1" stop-color="#FF6250"/>
</linearGradient>
<linearGradient id="paint12_linear_1617_11657" x1="104.88" y1="143.946" x2="112.188" y2="152.37" gradientUnits="userSpaceOnUse">
<stop stop-color="#A259FF"/>
<stop offset="1" stop-color="#FF6250"/>
</linearGradient>
<linearGradient id="paint13_linear_1617_11657" x1="92.9176" y1="153.998" x2="183.151" y2="177.706" gradientUnits="userSpaceOnUse">
<stop stop-color="#A259FF"/>
<stop offset="1" stop-color="#3B3B3B"/>
</linearGradient>
<linearGradient id="paint14_linear_1617_11657" x1="160.295" y1="177.717" x2="3.98099" y2="102.697" gradientUnits="userSpaceOnUse">
<stop stop-color="#A259FF"/>
<stop offset="0.666667" stop-color="white"/>
</linearGradient>
<clipPath id="clip0_1617_11657">
<rect width="276" height="276" fill="white"/>
</clipPath>
</defs>
</svg>
