<svg width="276" height="276" viewBox="0 0 276 276" fill="none" xmlns="http://www.w3.org/2000/svg">
<path d="M138 253C201.513 253 253 201.513 253 138C253 74.4873 201.513 23 138 23C74.4872 23 23 74.4873 23 138C23 201.513 74.4872 253 138 253Z" fill="url(#paint0_linear_1647_9906)"/>
<g filter="url(#filter0_f_1647_9906)">
<path d="M145 222C187.526 222 222 187.526 222 145C222 102.474 187.526 68 145 68C102.474 68 68 102.474 68 145C68 187.526 102.474 222 145 222Z" fill="url(#paint1_linear_1647_9906)"/>
</g>
<path fill-rule="evenodd" clip-rule="evenodd" d="M62.0964 90.5801C64.0204 90.5801 65.5801 89.0204 65.5801 87.0964C65.5801 85.1725 64.0204 83.6128 62.0964 83.6128C60.1725 83.6128 58.6128 85.1725 58.6128 87.0964C58.6128 89.0204 60.1725 90.5801 62.0964 90.5801ZM62.0964 93.1929C65.4634 93.1929 68.1929 90.4634 68.1929 87.0964C68.1929 83.7295 65.4634 81 62.0964 81C58.7295 81 56 83.7295 56 87.0964C56 90.4634 58.7295 93.1929 62.0964 93.1929Z" fill="white"/>
<path fill-rule="evenodd" clip-rule="evenodd" d="M51.0964 198.58C53.0204 198.58 54.5801 197.02 54.5801 195.096C54.5801 193.172 53.0204 191.613 51.0964 191.613C49.1725 191.613 47.6128 193.172 47.6128 195.096C47.6128 197.02 49.1725 198.58 51.0964 198.58ZM51.0964 201.193C54.4634 201.193 57.1929 198.463 57.1929 195.096C57.1929 191.729 54.4634 189 51.0964 189C47.7295 189 45 191.729 45 195.096C45 198.463 47.7295 201.193 51.0964 201.193Z" fill="white"/>
<path fill-rule="evenodd" clip-rule="evenodd" d="M213.096 51.5801C215.02 51.5801 216.58 50.0204 216.58 48.0964C216.58 46.1725 215.02 44.6128 213.096 44.6128C211.172 44.6128 209.613 46.1725 209.613 48.0964C209.613 50.0204 211.172 51.5801 213.096 51.5801ZM213.096 54.1929C216.463 54.1929 219.193 51.4634 219.193 48.0964C219.193 44.7295 216.463 42 213.096 42C209.729 42 207 44.7295 207 48.0964C207 51.4634 209.729 54.1929 213.096 54.1929Z" fill="white"/>
<path d="M65.3908 42.1887C65.647 41.1272 67.1569 41.1272 67.4131 42.1887L68.2755 45.7613C68.3671 46.1406 68.6632 46.4368 69.0426 46.5284L72.6152 47.3908C73.6767 47.647 73.6767 49.1569 72.6152 49.4131L69.0426 50.2755C68.6632 50.3671 68.3671 50.6632 68.2755 51.0426L67.4131 54.6152C67.1569 55.6767 65.647 55.6767 65.3908 54.6152L64.5284 51.0426C64.4368 50.6632 64.1406 50.3671 63.7613 50.2755L60.1887 49.4131C59.1272 49.1569 59.1272 47.647 60.1887 47.3908L63.7613 46.5284C64.1406 46.4368 64.4368 46.1406 64.5284 45.7613L65.3908 42.1887Z" fill="white"/>
<path d="M226.294 78.5914C226.574 77.4279 228.229 77.4279 228.51 78.5914L229.456 82.5074C229.556 82.9232 229.881 83.2479 230.296 83.3483L234.212 84.2936C235.376 84.5744 235.376 86.2294 234.212 86.5103L230.296 87.4556C229.881 87.556 229.556 87.8806 229.456 88.2964L228.51 92.2125C228.229 93.376 226.574 93.376 226.294 92.2125L225.348 88.2964C225.248 87.8806 224.923 87.556 224.507 87.4556L220.591 86.5103C219.428 86.2294 219.428 84.5744 220.591 84.2936L224.507 83.3483C224.923 83.2479 225.248 82.9232 225.348 82.5074L226.294 78.5914Z" fill="url(#paint2_linear_1647_9906)"/>
<path d="M55.0312 221.238C56.3552 221.026 57.4122 222.326 56.9338 223.579L53.7048 232.034C53.2264 233.287 51.5714 233.552 50.7258 232.511L45.0179 225.487C44.1722 224.447 44.7702 222.881 46.0942 222.669L55.0312 221.238Z" fill="url(#paint3_linear_1647_9906)"/>
<path d="M210.978 202.007C210.647 200.707 211.846 199.537 213.137 199.899L221.851 202.348C223.141 202.711 223.556 204.335 222.596 205.271L216.119 211.593C215.159 212.53 213.546 212.076 213.214 210.777L210.978 202.007Z" fill="url(#paint4_linear_1647_9906)"/>
<g filter="url(#filter1_f_1647_9906)">
<path d="M199.026 226.466C199.026 232.636 169.757 237.637 133.653 237.637C97.549 237.637 68.2808 232.636 68.2808 226.466C68.2808 220.296 97.549 215.295 133.653 215.295C169.757 215.295 199.026 220.296 199.026 226.466Z" fill="url(#paint5_radial_1647_9906)"/>
</g>
<g filter="url(#filter2_i_1647_9906)">
<path d="M134.925 66.0908L92.3465 73.5985C88.9259 74.2017 86.6419 77.4636 87.245 80.8842L97.9761 141.743C98.5792 145.164 101.841 147.448 105.262 146.844L147.84 139.337C151.261 138.734 153.545 135.472 152.942 132.051L142.211 71.1923C141.607 67.7717 138.345 65.4876 134.925 66.0908Z" fill="url(#paint6_linear_1647_9906)"/>
</g>
<path d="M135.541 97.3752L102.466 103.207C101.352 103.404 100.608 104.466 100.804 105.58L100.806 105.586C101.002 106.7 102.064 107.444 103.178 107.247L136.254 101.415C137.367 101.219 138.111 100.157 137.915 99.0428L137.914 99.0363C137.717 97.9225 136.655 97.1788 135.541 97.3752Z" fill="url(#paint7_linear_1647_9906)"/>
<path d="M140.573 125.798L107.781 131.58C106.677 131.775 105.936 132.807 106.126 133.886L106.128 133.893C106.318 134.972 107.367 135.689 108.471 135.494L141.263 129.712C142.368 129.517 143.108 128.485 142.918 127.406L142.917 127.399C142.727 126.32 141.677 125.603 140.573 125.798Z" fill="url(#paint8_linear_1647_9906)"/>
<path d="M137.951 110.926L105.159 116.708C104.055 116.903 103.314 117.935 103.504 119.014L103.506 119.021C103.696 120.1 104.745 120.817 105.849 120.622L138.641 114.84C139.745 114.645 140.486 113.613 140.296 112.534L140.295 112.528C140.104 111.449 139.055 110.732 137.951 110.926Z" fill="url(#paint9_linear_1647_9906)"/>
<path d="M110.848 80.0273L101.182 81.7316C99.0413 82.1092 97.6117 84.1509 97.9892 86.2919L98.4622 88.9743C98.8397 91.1153 100.881 92.5449 103.022 92.1674L112.688 90.4631C114.829 90.0856 116.259 88.0439 115.881 85.9028L115.408 83.2205C115.031 81.0794 112.989 79.6498 110.848 80.0273Z" fill="#A259FF"/>
<g filter="url(#filter3_i_1647_9906)">
<path d="M185.668 82.873H129.334C126.709 82.873 124.581 85.0011 124.581 87.6262V114.105C124.581 116.73 126.709 118.858 129.334 118.858H185.668C188.293 118.858 190.421 116.73 190.421 114.105V87.6262C190.421 85.0011 188.293 82.873 185.668 82.873Z" fill="url(#paint10_linear_1647_9906)"/>
</g>
<path d="M138.485 106.326C141.503 106.326 143.95 103.879 143.95 100.861C143.95 97.843 141.503 95.3965 138.485 95.3965C135.467 95.3965 133.021 97.843 133.021 100.861C133.021 103.879 135.467 106.326 138.485 106.326Z" fill="white"/>
<path d="M158.014 106.326C161.032 106.326 163.478 103.879 163.478 100.861C163.478 97.843 161.032 95.3965 158.014 95.3965C154.996 95.3965 152.549 97.843 152.549 100.861C152.549 103.879 154.996 106.326 158.014 106.326Z" fill="white"/>
<path d="M177.542 106.326C180.56 106.326 183.006 103.879 183.006 100.861C183.006 97.843 180.56 95.3965 177.542 95.3965C174.524 95.3965 172.077 97.843 172.077 100.861C172.077 103.879 174.524 106.326 177.542 106.326Z" fill="white"/>
<path fill-rule="evenodd" clip-rule="evenodd" d="M128.217 178.014C128.689 175.335 131.243 173.547 133.922 174.019L162.061 178.981C165.906 179.659 169.381 181.444 171.844 184.024C174.306 186.602 175.974 190.267 175.259 194.325C174.543 198.383 171.722 201.257 168.528 202.839C165.331 204.422 161.454 204.914 157.608 204.236L90.7461 192.446C88.0676 191.974 86.2791 189.419 86.7514 186.741C87.2237 184.062 89.7779 182.274 92.4565 182.746L159.319 194.536C161.313 194.887 163.03 194.571 164.157 194.013C165.285 193.454 165.517 192.856 165.559 192.615C165.601 192.375 165.589 191.736 164.721 190.826C163.853 189.917 162.347 189.033 160.351 188.681L132.096 182.716C129.418 182.244 127.744 180.692 128.217 178.014Z" fill="url(#paint11_linear_1647_9906)"/>
<path fill-rule="evenodd" clip-rule="evenodd" d="M182.569 127.876C183.627 125.603 186.081 124.325 188.55 124.76L210.61 128.65C213.622 129.181 215.634 132.053 215.103 135.066C214.571 138.078 211.699 140.089 208.687 139.558L190.814 136.406L180.256 159.069C178.965 161.842 175.67 163.042 172.897 161.751C170.125 160.459 168.924 157.164 170.216 154.392L182.569 127.876Z" fill="url(#paint12_linear_1647_9906)"/>
<path d="M103.94 212.065C110.465 213.216 116.688 208.858 117.839 202.333C118.989 195.807 114.632 189.585 108.107 188.434C101.581 187.283 95.3583 191.641 94.2077 198.166C93.0571 204.692 97.4143 210.914 103.94 212.065Z" fill="url(#paint13_linear_1647_9906)"/>
<path d="M177.48 137.889L96.0566 123.532C89.953 122.456 84.5318 126.838 84.957 132.497L85.9738 165.522C86.2823 169.61 89.6185 173.059 94.0266 173.836L165.002 191.141L184.861 150.128C189.437 141.822 183.598 138.968 177.48 137.889Z" fill="url(#paint14_linear_1647_9906)"/>
<path d="M104.647 206.146C107.925 206.724 111.052 204.535 111.63 201.257C112.208 197.979 110.019 194.852 106.74 194.274C103.462 193.696 100.336 195.885 99.7576 199.164C99.1795 202.442 101.369 205.568 104.647 206.146Z" fill="url(#paint15_linear_1647_9906)"/>
<mask id="mask0_1647_9906" style="mask-type:alpha" maskUnits="userSpaceOnUse" x="84" y="123" width="102" height="69">
<path d="M177.48 137.889L96.0562 123.532C89.9526 122.456 84.5314 126.838 84.9566 132.497L85.9734 165.522C86.2819 169.61 89.6181 173.059 94.0262 173.836L165.001 191.141L184.861 150.128C187.198 144.941 183.598 138.968 177.48 137.889Z" fill="url(#paint16_linear_1647_9906)"/>
</mask>
<g mask="url(#mask0_1647_9906)">
<path d="M138.084 159.666C138.437 157.796 140.24 156.562 142.111 156.907C143.981 157.253 145.211 159.049 144.858 160.918L140.197 185.571C139.844 187.44 138.041 188.675 136.171 188.329C134.3 187.984 133.07 186.188 133.423 184.319L138.084 159.666Z" fill="#A259FF"/>
<path d="M198.911 143.632C200.473 143.903 201.524 145.39 201.26 146.953L201.068 148.085C200.803 149.648 199.322 150.695 197.76 150.424L83.912 130.651C82.3502 130.379 81.2989 128.892 81.5638 127.33L81.7557 126.198C82.0206 124.635 83.5015 123.588 85.0633 123.859L198.911 143.632Z" fill="#A259FF"/>
<path d="M157.244 163.129C157.597 161.26 159.4 160.025 161.27 160.371C163.141 160.717 164.371 162.513 164.017 164.382L159.357 189.035C159.004 190.904 157.201 192.139 155.33 191.793C153.46 191.448 152.23 189.652 152.583 187.783L157.244 163.129Z" fill="#A259FF"/>
<path d="M118.927 156.204C119.28 154.335 121.083 153.1 122.953 153.445C124.824 153.791 126.054 155.587 125.7 157.456L121.04 182.109C120.687 183.978 118.884 185.213 117.013 184.868C115.143 184.522 113.913 182.726 114.266 180.857L118.927 156.204Z" fill="#A259FF"/>
<path d="M99.5481 152.788C99.9015 150.919 101.704 149.683 103.575 150.028C105.445 150.374 106.675 152.17 106.322 154.039L101.661 178.692C101.308 180.561 99.5054 181.797 97.6348 181.452C95.7643 181.106 94.5343 179.309 94.8877 177.441L99.5481 152.788Z" fill="#A259FF"/>
<path d="M82.7209 123.879C83.0788 121.849 85.0141 120.494 87.0435 120.852L186.543 138.396C188.572 138.754 189.927 140.69 189.569 142.719C189.211 144.749 187.276 146.104 185.247 145.746L85.7477 128.201C83.7182 127.844 82.3631 125.908 82.7209 123.879Z" fill="url(#paint17_linear_1647_9906)"/>
</g>
<defs>
<filter id="filter0_f_1647_9906" x="14" y="14" width="262" height="262" filterUnits="userSpaceOnUse" color-interpolation-filters="sRGB">
<feFlood flood-opacity="0" result="BackgroundImageFix"/>
<feBlend mode="normal" in="SourceGraphic" in2="BackgroundImageFix" result="shape"/>
<feGaussianBlur stdDeviation="27" result="effect1_foregroundBlur_1647_9906"/>
</filter>
<filter id="filter1_f_1647_9906" x="47.5934" y="194.608" width="172.12" height="63.7166" filterUnits="userSpaceOnUse" color-interpolation-filters="sRGB">
<feFlood flood-opacity="0" result="BackgroundImageFix"/>
<feBlend mode="normal" in="SourceGraphic" in2="BackgroundImageFix" result="shape"/>
<feGaussianBlur stdDeviation="10.3437" result="effect1_foregroundBlur_1647_9906"/>
</filter>
<filter id="filter2_i_1647_9906" x="87.1484" y="65.9941" width="68.2747" height="86.5112" filterUnits="userSpaceOnUse" color-interpolation-filters="sRGB">
<feFlood flood-opacity="0" result="BackgroundImageFix"/>
<feBlend mode="normal" in="SourceGraphic" in2="BackgroundImageFix" result="shape"/>
<feColorMatrix in="SourceAlpha" type="matrix" values="0 0 0 0 0 0 0 0 0 0 0 0 0 0 0 0 0 0 127 0" result="hardAlpha"/>
<feOffset dx="2.38455" dy="5.56394"/>
<feGaussianBlur stdDeviation="5.96137"/>
<feComposite in2="hardAlpha" operator="arithmetic" k2="-1" k3="1"/>
<feColorMatrix type="matrix" values="0 0 0 0 0.104618 0 0 0 0 0.465612 0 0 0 0 0.545833 0 0 0 0.15 0"/>
<feBlend mode="normal" in2="shape" result="effect1_innerShadow_1647_9906"/>
</filter>
<filter id="filter3_i_1647_9906" x="124.581" y="82.873" width="71.4657" height="39.7349" filterUnits="userSpaceOnUse" color-interpolation-filters="sRGB">
<feFlood flood-opacity="0" result="BackgroundImageFix"/>
<feBlend mode="normal" in="SourceGraphic" in2="BackgroundImageFix" result="shape"/>
<feColorMatrix in="SourceAlpha" type="matrix" values="0 0 0 0 0 0 0 0 0 0 0 0 0 0 0 0 0 0 127 0" result="hardAlpha"/>
<feOffset dx="5.62585" dy="3.75056"/>
<feGaussianBlur stdDeviation="6.09467"/>
<feComposite in2="hardAlpha" operator="arithmetic" k2="-1" k3="1"/>
<feColorMatrix type="matrix" values="0 0 0 0 0.104618 0 0 0 0 0.465612 0 0 0 0 0.545833 0 0 0 0.09 0"/>
<feBlend mode="normal" in2="shape" result="effect1_innerShadow_1647_9906"/>
</filter>
<linearGradient id="paint0_linear_1647_9906" x1="55.0834" y1="23" x2="230.623" y2="59.541" gradientUnits="userSpaceOnUse">
<stop stop-color="#A259FF"/>
<stop offset="1" stop-color="#3B3B3B"/>
</linearGradient>
<linearGradient id="paint1_linear_1647_9906" x1="178" y1="207.333" x2="126.645" y2="201.479" gradientUnits="userSpaceOnUse">
<stop stop-color="#A259FF" stop-opacity="0"/>
<stop offset="1" stop-color="#FF6250"/>
</linearGradient>
<linearGradient id="paint2_linear_1647_9906" x1="230.687" y1="81.1335" x2="245.417" y2="92.7031" gradientUnits="userSpaceOnUse">
<stop stop-color="#A259FF"/>
<stop offset="1" stop-color="#377DF7"/>
</linearGradient>
<linearGradient id="paint3_linear_1647_9906" x1="56.3966" y1="225.526" x2="55.9045" y2="240.182" gradientUnits="userSpaceOnUse">
<stop stop-color="#A259FF"/>
<stop offset="1" stop-color="#377DF7"/>
</linearGradient>
<linearGradient id="paint4_linear_1647_9906" x1="215.125" y1="200.258" x2="229.765" y2="199.418" gradientUnits="userSpaceOnUse">
<stop stop-color="#A259FF"/>
<stop offset="1" stop-color="#377DF7"/>
</linearGradient>
<radialGradient id="paint5_radial_1647_9906" cx="0" cy="0" r="1" gradientUnits="userSpaceOnUse" gradientTransform="translate(133.653 226.466) rotate(90) scale(11.1712 65.3725)">
<stop stop-color="#2B2B2B"/>
<stop offset="1" stop-color="#2B2B2B" stop-opacity="0"/>
</radialGradient>
<linearGradient id="paint6_linear_1647_9906" x1="95.0521" y1="73.1214" x2="150.428" y2="71.4149" gradientUnits="userSpaceOnUse">
<stop stop-color="#A259FF"/>
<stop offset="1" stop-color="#3B3B3B"/>
</linearGradient>
<linearGradient id="paint7_linear_1647_9906" x1="130.571" y1="101.239" x2="126.936" y2="90.4641" gradientUnits="userSpaceOnUse">
<stop stop-color="#A259FF"/>
<stop offset="0.666667" stop-color="white"/>
</linearGradient>
<linearGradient id="paint8_linear_1647_9906" x1="135.634" y1="129.563" x2="132.146" y2="119.107" gradientUnits="userSpaceOnUse">
<stop stop-color="#A259FF"/>
<stop offset="0.666667" stop-color="white"/>
</linearGradient>
<linearGradient id="paint9_linear_1647_9906" x1="133.011" y1="114.691" x2="129.523" y2="104.235" gradientUnits="userSpaceOnUse">
<stop stop-color="#A259FF"/>
<stop offset="0.666667" stop-color="white"/>
</linearGradient>
<linearGradient id="paint10_linear_1647_9906" x1="124.581" y1="126.942" x2="165.096" y2="66.136" gradientUnits="userSpaceOnUse">
<stop stop-color="#A259FF"/>
<stop offset="1" stop-color="#FF6250"/>
</linearGradient>
<linearGradient id="paint11_linear_1647_9906" x1="156.685" y1="196.706" x2="142.795" y2="131.516" gradientUnits="userSpaceOnUse">
<stop stop-color="#A259FF"/>
<stop offset="0.666667" stop-color="white"/>
</linearGradient>
<linearGradient id="paint12_linear_1647_9906" x1="202.98" y1="136.181" x2="235.041" y2="173.498" gradientUnits="userSpaceOnUse">
<stop stop-color="#A259FF"/>
<stop offset="1" stop-color="#377DF7"/>
</linearGradient>
<linearGradient id="paint13_linear_1647_9906" x1="112.159" y1="206.621" x2="84.7543" y2="178.621" gradientUnits="userSpaceOnUse">
<stop stop-color="#A259FF"/>
<stop offset="0.666667" stop-color="white"/>
</linearGradient>
<linearGradient id="paint14_linear_1647_9906" x1="160.325" y1="174.629" x2="105.239" y2="64.8082" gradientUnits="userSpaceOnUse">
<stop stop-color="#A259FF"/>
<stop offset="0.666667" stop-color="white"/>
</linearGradient>
<linearGradient id="paint15_linear_1647_9906" x1="98.8781" y1="202.067" x2="115.982" y2="205.363" gradientUnits="userSpaceOnUse">
<stop stop-color="white"/>
<stop offset="1" stop-color="#BCF3FF"/>
</linearGradient>
<linearGradient id="paint16_linear_1647_9906" x1="84.241" y1="134.429" x2="185.084" y2="153.455" gradientUnits="userSpaceOnUse">
<stop stop-color="#AFF1FF"/>
<stop offset="1" stop-color="#65C8DE"/>
</linearGradient>
<linearGradient id="paint17_linear_1647_9906" x1="167.698" y1="140.508" x2="169.338" y2="119.744" gradientUnits="userSpaceOnUse">
<stop stop-color="#A259FF"/>
<stop offset="0.666667" stop-color="white"/>
</linearGradient>
</defs>
</svg>
